<mxfile host="Electron" agent="Mozilla/5.0 (Windows NT 10.0; Win64; x64) AppleWebKit/537.36 (KHTML, like Gecko) draw.io/24.7.17 Chrome/128.0.6613.36 Electron/32.0.1 Safari/537.36" version="24.7.17">
  <diagram name="Trang-1" id="X1QMxOyeNlm8NgBtyhi8">
    <mxGraphModel dx="1434" dy="844" grid="1" gridSize="10" guides="1" tooltips="1" connect="1" arrows="1" fold="1" page="1" pageScale="1" pageWidth="850" pageHeight="1100" math="0" shadow="0">
      <root>
        <mxCell id="0" />
        <mxCell id="1" parent="0" />
        <mxCell id="7anLrantRjsyb7ao9bb1-3" value="" style="edgeStyle=orthogonalEdgeStyle;rounded=0;orthogonalLoop=1;jettySize=auto;html=1;" edge="1" parent="1" source="7anLrantRjsyb7ao9bb1-1" target="7anLrantRjsyb7ao9bb1-2">
          <mxGeometry relative="1" as="geometry" />
        </mxCell>
        <mxCell id="7anLrantRjsyb7ao9bb1-1" value="Bắt đầu" style="rounded=0;whiteSpace=wrap;html=1;" vertex="1" parent="1">
          <mxGeometry x="360" y="10" width="120" height="60" as="geometry" />
        </mxCell>
        <mxCell id="7anLrantRjsyb7ao9bb1-4" style="edgeStyle=orthogonalEdgeStyle;rounded=0;orthogonalLoop=1;jettySize=auto;html=1;exitX=0;exitY=0.5;exitDx=0;exitDy=0;entryX=0;entryY=0.5;entryDx=0;entryDy=0;" edge="1" parent="1" source="7anLrantRjsyb7ao9bb1-2" target="7anLrantRjsyb7ao9bb1-1">
          <mxGeometry relative="1" as="geometry" />
        </mxCell>
        <mxCell id="7anLrantRjsyb7ao9bb1-6" value="" style="edgeStyle=orthogonalEdgeStyle;rounded=0;orthogonalLoop=1;jettySize=auto;html=1;" edge="1" parent="1" source="7anLrantRjsyb7ao9bb1-2" target="7anLrantRjsyb7ao9bb1-5">
          <mxGeometry relative="1" as="geometry" />
        </mxCell>
        <mxCell id="7anLrantRjsyb7ao9bb1-2" value="Nếu đồ thị&amp;nbsp;&lt;div&gt;không có Euler&lt;/div&gt;" style="rhombus;whiteSpace=wrap;html=1;" vertex="1" parent="1">
          <mxGeometry x="360" y="100" width="120" height="120" as="geometry" />
        </mxCell>
        <mxCell id="7anLrantRjsyb7ao9bb1-10" value="" style="edgeStyle=orthogonalEdgeStyle;rounded=0;orthogonalLoop=1;jettySize=auto;html=1;" edge="1" parent="1" source="7anLrantRjsyb7ao9bb1-5" target="7anLrantRjsyb7ao9bb1-9">
          <mxGeometry relative="1" as="geometry" />
        </mxCell>
        <mxCell id="7anLrantRjsyb7ao9bb1-11" value="" style="edgeStyle=orthogonalEdgeStyle;rounded=0;orthogonalLoop=1;jettySize=auto;html=1;" edge="1" parent="1" source="7anLrantRjsyb7ao9bb1-5" target="7anLrantRjsyb7ao9bb1-7">
          <mxGeometry relative="1" as="geometry" />
        </mxCell>
        <mxCell id="7anLrantRjsyb7ao9bb1-5" value="Nếu đồ thị có&amp;nbsp;&lt;div&gt;Euler&lt;/div&gt;" style="rhombus;whiteSpace=wrap;html=1;" vertex="1" parent="1">
          <mxGeometry x="370" y="250" width="100" height="100" as="geometry" />
        </mxCell>
        <mxCell id="7anLrantRjsyb7ao9bb1-19" style="edgeStyle=orthogonalEdgeStyle;rounded=0;orthogonalLoop=1;jettySize=auto;html=1;exitX=0.5;exitY=1;exitDx=0;exitDy=0;entryX=1;entryY=0.5;entryDx=0;entryDy=0;" edge="1" parent="1" source="7anLrantRjsyb7ao9bb1-7" target="7anLrantRjsyb7ao9bb1-17">
          <mxGeometry relative="1" as="geometry" />
        </mxCell>
        <mxCell id="7anLrantRjsyb7ao9bb1-7" value="Bắt đầu từ đỉnh đầu tiên" style="rounded=0;whiteSpace=wrap;html=1;" vertex="1" parent="1">
          <mxGeometry x="500" y="270" width="150" height="60" as="geometry" />
        </mxCell>
        <mxCell id="7anLrantRjsyb7ao9bb1-18" style="edgeStyle=orthogonalEdgeStyle;rounded=0;orthogonalLoop=1;jettySize=auto;html=1;exitX=0.5;exitY=1;exitDx=0;exitDy=0;entryX=0;entryY=0.5;entryDx=0;entryDy=0;" edge="1" parent="1" source="7anLrantRjsyb7ao9bb1-9" target="7anLrantRjsyb7ao9bb1-17">
          <mxGeometry relative="1" as="geometry" />
        </mxCell>
        <mxCell id="7anLrantRjsyb7ao9bb1-9" value="Bắt đầu từ đỉnh đầu tiên bậc lẻ" style="rounded=0;whiteSpace=wrap;html=1;" vertex="1" parent="1">
          <mxGeometry x="190" y="270" width="150" height="60" as="geometry" />
        </mxCell>
        <mxCell id="7anLrantRjsyb7ao9bb1-12" value="Sai" style="text;html=1;align=center;verticalAlign=middle;resizable=0;points=[];autosize=1;strokeColor=none;fillColor=none;" vertex="1" parent="1">
          <mxGeometry x="340" y="268" width="40" height="30" as="geometry" />
        </mxCell>
        <mxCell id="7anLrantRjsyb7ao9bb1-13" value="Đúng" style="text;html=1;align=center;verticalAlign=middle;resizable=0;points=[];autosize=1;strokeColor=none;fillColor=none;" vertex="1" parent="1">
          <mxGeometry x="455" y="268" width="50" height="30" as="geometry" />
        </mxCell>
        <mxCell id="7anLrantRjsyb7ao9bb1-14" value="Đúng" style="text;html=1;align=center;verticalAlign=middle;resizable=0;points=[];autosize=1;strokeColor=none;fillColor=none;" vertex="1" parent="1">
          <mxGeometry x="290" y="130" width="50" height="30" as="geometry" />
        </mxCell>
        <mxCell id="7anLrantRjsyb7ao9bb1-15" value="Sai" style="text;html=1;align=center;verticalAlign=middle;resizable=0;points=[];autosize=1;strokeColor=none;fillColor=none;" vertex="1" parent="1">
          <mxGeometry x="380" y="220" width="40" height="30" as="geometry" />
        </mxCell>
        <mxCell id="7anLrantRjsyb7ao9bb1-21" value="" style="edgeStyle=orthogonalEdgeStyle;rounded=0;orthogonalLoop=1;jettySize=auto;html=1;" edge="1" parent="1" source="7anLrantRjsyb7ao9bb1-17" target="7anLrantRjsyb7ao9bb1-20">
          <mxGeometry relative="1" as="geometry" />
        </mxCell>
        <mxCell id="7anLrantRjsyb7ao9bb1-17" value="Duyệt đồ thị bằng Fleury" style="shape=process;whiteSpace=wrap;html=1;backgroundOutline=1;" vertex="1" parent="1">
          <mxGeometry x="360" y="420" width="120" height="60" as="geometry" />
        </mxCell>
        <mxCell id="7anLrantRjsyb7ao9bb1-20" value="Kết thúc" style="rounded=1;whiteSpace=wrap;html=1;" vertex="1" parent="1">
          <mxGeometry x="360" y="520" width="120" height="60" as="geometry" />
        </mxCell>
      </root>
    </mxGraphModel>
  </diagram>
</mxfile>
